<svg width="31" height="22" viewBox="0 0 31 22" fill="none" xmlns="http://www.w3.org/2000/svg">
<path d="M2.14931 0.0243473C1.20983 0.179424 0.425806 0.860416 0.108141 1.79088L0.0168971 2.06058L0.00675882 10.5595L0 19.0584L0.0844853 19.3888C0.3447 20.4103 1.20983 21.1587 2.2811 21.2902C2.69677 21.3407 27.3698 21.3441 27.7754 21.2936C28.4039 21.2126 28.8771 20.98 29.3164 20.5384C29.7152 20.1338 29.9179 19.7563 30.0261 19.2202C30.0734 18.9775 30.0768 18.1347 30.07 10.5224L30.0599 2.09429L29.9652 1.82459C29.6746 0.971666 29.09 0.388441 28.235 0.0951424L27.9646 0.00411987L15.1398 0.000747681C8.08693 -0.0026226 2.24055 0.00749016 2.14931 0.0243473ZM27.4577 1.6358C27.4205 1.66952 26.3425 2.61346 25.0583 3.72935C23.7775 4.8486 21.003 7.26579 18.8977 9.10312C16.0454 11.5911 15.0147 12.4744 14.8525 12.5586C14.4537 12.771 13.9434 12.734 13.6123 12.4676C13.4872 12.3699 2.43318 1.60883 2.43318 1.58523C2.43318 1.57849 8.08017 1.57175 14.9775 1.57175C27.3056 1.57175 27.5219 1.57175 27.4577 1.6358ZM28.4817 14.6353L28.4715 18.5628L24.7576 14.0791C22.7164 11.6113 21.0166 9.55824 20.9828 9.51441L20.9186 9.4335L24.6967 6.14316L28.4715 2.85282L28.4817 6.78033C28.4851 8.9413 28.4851 12.4744 28.4817 14.6353ZM5.03194 6.33869C6.91427 8.16928 8.44853 9.68297 8.44177 9.69983C8.42825 9.74028 1.6086 17.983 1.58832 17.9864C1.57818 17.9897 1.57143 14.6151 1.57143 10.4887C1.57143 6.36229 1.58156 2.99104 1.5917 2.99442C1.60184 3.00116 3.14961 4.50474 5.03194 6.33869ZM23.5714 15.1242L27.38 19.7259L14.9877 19.736C8.17141 19.7394 2.52442 19.7327 2.44331 19.7192C2.35883 19.7023 2.28786 19.6787 2.28448 19.6652C2.2811 19.6349 9.56711 10.8157 9.6009 10.8123C9.61104 10.809 10.2599 11.4327 11.0473 12.1979C11.8313 12.9632 12.5613 13.6543 12.666 13.7352C13.592 14.4533 15.0046 14.4533 15.9677 13.7318C16.0792 13.6476 16.968 12.8823 17.9447 12.0294C18.9213 11.1764 19.729 10.4887 19.7425 10.4988C19.7527 10.5123 21.4762 12.5924 23.5714 15.1242Z" fill="black"/>
</svg>
